<svg width="18" height="18" viewBox="0 0 18 18" fill="none" xmlns="http://www.w3.org/2000/svg">
<path opacity="0.3" d="M8.82023 2.21577C13.1821 2.21577 15.9085 6.93823 13.7276 10.7158C13.3752 11.3262 12.912 11.8655 12.3619 12.306V15.5714C12.3619 15.6973 12.3314 15.8213 12.273 15.9328C12.2146 16.0443 12.1301 16.14 12.0266 16.2117C11.9231 16.2835 11.8038 16.329 11.6789 16.3446C11.554 16.3601 11.4272 16.3452 11.3093 16.301L8.82023 15.3688L6.33114 16.3024C6.21321 16.3466 6.08632 16.3615 5.96135 16.346C5.83638 16.3304 5.71704 16.2847 5.61357 16.213C5.51009 16.1412 5.42556 16.0454 5.36722 15.9337C5.30887 15.8221 5.27845 15.698 5.27856 15.5721V12.3067C1.87289 9.58102 2.69456 4.19061 6.75827 2.60394C7.41543 2.34733 8.11474 2.21568 8.82023 2.21577Z" fill="black"/>
<path d="M8.82026 5.0491C11.0012 5.0491 12.3648 7.40998 11.2739 9.2991C11.0253 9.72981 10.6676 10.0875 10.2369 10.3362C9.80618 10.5848 9.31761 10.7158 8.82026 10.7158C6.63931 10.7158 5.27576 8.35489 6.3666 6.46577C6.61527 6.03506 6.97293 5.67739 7.40364 5.42872C7.83434 5.18004 8.32292 5.04912 8.82026 5.0491Z" fill="black"/>
</svg>
