<svg width="17" height="18" viewBox="0 0 17 18" fill="none" xmlns="http://www.w3.org/2000/svg">
<path d="M10.2755 14.2574C10.5573 14.2574 10.8275 14.3694 11.0268 14.5686C11.226 14.7679 11.338 15.0381 11.338 15.3199C11.338 15.6017 11.226 15.872 11.0268 16.0712C10.8275 16.2705 10.5573 16.3824 10.2755 16.3824C9.99368 16.3824 9.72343 16.2705 9.52417 16.0712C9.32491 15.872 9.21297 15.6017 9.21297 15.3199C9.21297 15.0381 9.32491 14.7679 9.52417 14.5686C9.72343 14.3694 9.99368 14.2574 10.2755 14.2574ZM7.44214 10.0074C7.72393 10.0074 7.99418 10.1194 8.19344 10.3186C8.3927 10.5179 8.50464 10.7881 8.50464 11.0699C8.50464 11.3517 8.3927 11.622 8.19344 11.8212C7.99418 12.0205 7.72393 12.1324 7.44214 12.1324C7.16035 12.1324 6.89009 12.0205 6.69084 11.8212C6.49158 11.622 6.37964 11.3517 6.37964 11.0699C6.37964 10.7881 6.49158 10.5179 6.69084 10.3186C6.89009 10.1194 7.16035 10.0074 7.44214 10.0074ZM10.2755 11.4241C10.5573 11.4241 10.8275 11.536 11.0268 11.7353C11.226 11.9346 11.338 12.2048 11.338 12.4866C11.338 12.7684 11.226 13.0386 11.0268 13.2379C10.8275 13.4372 10.5573 13.5491 10.2755 13.5491C9.99368 13.5491 9.72343 13.4372 9.52417 13.2379C9.32491 13.0386 9.21297 12.7684 9.21297 12.4866C9.21297 12.2048 9.32491 11.9346 9.52417 11.7353C9.72343 11.536 9.99368 11.4241 10.2755 11.4241Z" fill="black"/>
<path opacity="0.3" d="M8.15048 2.21577C9.08722 2.21549 10.0018 2.50094 10.772 3.03403C11.5423 3.56712 12.1317 4.32248 12.4614 5.19927C15.617 6.06557 16.6519 10.0237 14.3236 12.3237C13.839 12.8023 13.2465 13.1575 12.596 13.3593C13.2058 11.7379 12.0073 10.0074 10.2755 10.0074C10.1109 10.0063 9.94877 9.96751 9.80154 9.89396C9.65431 9.82041 9.5259 9.71408 9.42618 9.58315C8.28222 8.05527 5.91356 8.33861 5.16273 10.0931C5.0298 10.4035 4.96168 10.7378 4.96253 11.0754C4.96339 11.413 5.0332 11.747 5.16768 12.0566C5.28597 12.3315 5.28597 12.6431 5.16768 12.918C5.08079 13.1173 5.02106 13.3279 4.98847 13.5498H4.96298C2.2366 13.5519 0.530933 10.601 1.89235 8.23944C2.27114 7.58228 2.85091 7.06409 3.54631 6.76115C3.56177 5.55027 4.05367 4.39423 4.91545 3.54345C5.77723 2.69268 6.93949 2.21568 8.15048 2.21577Z" fill="black"/>
<path d="M7.44214 12.8408C7.72393 12.8408 7.99418 12.9527 8.19344 13.152C8.3927 13.3512 8.50464 13.6215 8.50464 13.9033C8.50464 14.1851 8.3927 14.4553 8.19344 14.6546C7.99418 14.8538 7.72393 14.9658 7.44214 14.9658C7.16035 14.9658 6.89009 14.8538 6.69084 14.6546C6.49158 14.4553 6.37964 14.1851 6.37964 13.9033C6.37964 13.6215 6.49158 13.3512 6.69084 13.152C6.89009 12.9527 7.16035 12.8408 7.44214 12.8408Z" fill="black"/>
</svg>
