<svg width="18" height="18" viewBox="0 0 18 18" fill="none" xmlns="http://www.w3.org/2000/svg">
<path opacity="0.3" d="M9.44874 4.02337C9.39725 3.90884 9.37681 3.78277 9.38948 3.65784C9.40215 3.5329 9.44748 3.41351 9.52092 3.31164C9.59435 3.20978 9.69331 3.12904 9.80784 3.07754C9.92236 3.02604 10.0484 3.00559 10.1734 3.01825C10.1908 3.01966 10.2083 3.02202 10.2258 3.02533C15.0573 3.88454 17.1469 9.6525 13.987 13.4067C10.8272 17.1608 4.7872 16.087 3.11553 11.4729C2.99133 11.1301 2.89678 10.7772 2.83291 10.4182C2.81109 10.2946 2.82219 10.1674 2.86507 10.0494C2.90796 9.93148 2.98113 9.82687 3.07723 9.74613C3.17333 9.66538 3.28899 9.61135 3.41259 9.58944C3.53618 9.56753 3.66337 9.57853 3.78137 9.62133C3.79837 9.62747 3.81489 9.63408 3.83095 9.64116C6.81587 10.9813 10.1316 8.58716 9.79937 5.33237C9.75325 4.88009 9.63487 4.43814 9.44874 4.02337Z" fill="black"/>
<path d="M6.55877 2.82699C6.5871 2.76324 6.67635 2.76324 6.70469 2.82699L6.77694 2.98424C7.08485 3.62031 7.56926 4.15439 8.17235 4.52274L8.28356 4.5879C8.33527 4.61624 8.33669 4.6899 8.28569 4.72036L8.28356 4.72178L8.17164 4.78695C7.51858 5.18612 7.00608 5.77883 6.70539 6.48269C6.69981 6.49566 6.6909 6.50691 6.67957 6.51532C6.66823 6.52373 6.65488 6.52899 6.64085 6.53057C6.62683 6.53215 6.61264 6.53 6.59971 6.52433C6.58679 6.51866 6.5756 6.50967 6.56727 6.49828C6.56396 6.49356 6.56113 6.48836 6.55877 6.48269L6.48652 6.32545C6.1786 5.68937 5.6942 5.1553 5.0911 4.78695L4.97919 4.72178C4.96746 4.71525 4.95765 4.70575 4.95076 4.69423C4.94386 4.68271 4.94012 4.66959 4.9399 4.65616C4.93969 4.64274 4.94301 4.6295 4.94953 4.61777C4.95605 4.60603 4.96555 4.59622 4.97706 4.58932L4.97919 4.5879L5.0911 4.52274C5.6942 4.15439 6.1786 3.62031 6.48652 2.98424L6.55877 2.82699ZM4.55277 6.26878L4.5981 6.36794C4.79137 6.76725 5.09557 7.10243 5.47431 7.3334L5.54514 7.3752C5.5525 7.37941 5.55862 7.3855 5.56287 7.39284C5.56712 7.40017 5.56936 7.4085 5.56936 7.41699C5.56936 7.42547 5.56712 7.4338 5.56287 7.44114C5.55862 7.44848 5.5525 7.45456 5.54514 7.45878L5.47431 7.49986C5.09547 7.73103 4.79126 8.06646 4.5981 8.46603L4.55277 8.5652C4.54934 8.57339 4.54377 8.58051 4.53665 8.58581C4.52953 8.59112 4.52111 8.59441 4.51228 8.59536C4.50345 8.5963 4.49453 8.59485 4.48645 8.59116C4.47837 8.58748 4.47143 8.58169 4.46635 8.5744L4.46069 8.5652L4.41535 8.46603C4.2222 8.06646 3.91799 7.73103 3.53914 7.49986L3.46831 7.45878C3.46095 7.45456 3.45484 7.44848 3.45058 7.44114C3.44633 7.4338 3.44409 7.42547 3.44409 7.41699C3.44409 7.4085 3.44633 7.40017 3.45058 7.39284C3.45484 7.3855 3.46095 7.37941 3.46831 7.3752L3.53914 7.3334C3.91739 7.10249 4.22198 6.76674 4.41464 6.36724L4.45998 6.26807C4.46341 6.25988 4.46897 6.25276 4.47609 6.24745C4.48322 6.24215 4.49163 6.23885 4.50046 6.23791C4.50929 6.23697 4.51821 6.23842 4.52629 6.2421C4.53437 6.24579 4.54132 6.25158 4.54639 6.25886L4.55206 6.26807L4.55277 6.26878Z" fill="black"/>
</svg>
