<svg width="43" height="42" viewBox="0 0 43 42" fill="none" xmlns="http://www.w3.org/2000/svg">
<circle cx="21.5681" cy="21.3853" r="20.6028" fill="#D1DFD4"/>
<path d="M12.7331 14.2158C12.7331 14.2158 17.9416 17.0206 17.9416 17.9903C17.9416 19.5285 11.2905 19.3953 11.2905 19.3953" stroke="#A8B1AA" stroke-linecap="round"/>
<path d="M30.4032 14.2158C30.4032 14.2158 25.1946 17.0206 25.1946 17.9903C25.1946 19.5285 31.8457 19.3953 31.8457 19.3953" stroke="#A8B1AA" stroke-linecap="round"/>
<path d="M25.6048 22.8009H17.403C16.6781 22.8009 16.194 23.5481 16.4903 24.2097L18.644 29.0182L20.5369 32.7514C20.9072 33.4817 21.9504 33.4817 22.3207 32.7514L24.2136 29.0182L26.5066 24.2331C26.8247 23.5693 26.3409 22.8009 25.6048 22.8009Z" fill="#A8B1AA"/>
</svg>
