<svg width="18" height="18" viewBox="0 0 18 18" fill="none" xmlns="http://www.w3.org/2000/svg">
<path d="M8.71847 10.0145C8.80833 9.85794 8.95455 9.74164 9.12727 9.68928C9.29998 9.63693 9.48617 9.65248 9.64781 9.73276C9.80945 9.81304 9.93435 9.95199 9.99701 10.1212C10.0597 10.2905 10.0554 10.4773 9.98497 10.6435L9.94813 10.7171L9.13709 12.1366H10.6281C10.7578 12.1366 10.8855 12.169 10.9995 12.2308C11.1135 12.2926 11.2103 12.3819 11.2811 12.4906C11.3519 12.5993 11.3944 12.724 11.4048 12.8533C11.4152 12.9825 11.3932 13.1124 11.3407 13.231L11.3046 13.3018L9.94813 15.6755C9.85826 15.832 9.71204 15.9483 9.53933 16.0006C9.36661 16.053 9.18043 16.0374 9.01879 15.9571C8.85715 15.8769 8.73225 15.7379 8.66959 15.5687C8.60693 15.3994 8.61124 15.2126 8.68163 15.0465L8.71847 14.9728L9.52951 13.5533H8.03847C7.90876 13.5533 7.78111 13.5209 7.66708 13.4591C7.55306 13.3973 7.45627 13.308 7.38549 13.1993C7.31472 13.0906 7.2722 12.9659 7.26179 12.8367C7.25138 12.7074 7.27341 12.5775 7.32588 12.4589L7.36201 12.3881L8.71847 10.0145Z" fill="black"/>
<path opacity="0.3" d="M8.97909 2.21996C9.91584 2.21967 10.8304 2.50512 11.6007 3.03821C12.3709 3.5713 12.9603 4.32666 13.29 5.20346C16.4456 6.07116 17.4784 10.03 15.1487 12.3286C14.4956 12.9732 13.6515 13.3892 12.7425 13.5143C13.0605 12.4129 12.452 11.2491 11.4009 10.8574C11.7763 9.26433 10.2867 7.86254 8.71984 8.33358C8.19923 8.49009 7.75841 8.84016 7.48805 9.31179L6.1323 11.6847C5.96947 11.9653 5.8717 12.2788 5.8462 12.6022C5.8207 12.9257 5.86812 13.2507 5.98496 13.5533H5.79159C3.06521 13.5554 1.35955 10.6045 2.72096 8.24291C3.09976 7.58575 3.67952 7.06756 4.37492 6.76462C4.39057 5.55386 4.88255 4.398 5.74431 3.54738C6.60607 2.69676 7.76823 2.21985 8.97909 2.21996Z" fill="black"/>
</svg>
