<svg width="18" height="18" viewBox="0 0 18 18" fill="none" xmlns="http://www.w3.org/2000/svg">
<path d="M9.31344 13.9033C9.57756 13.9033 9.83222 14.0017 10.0277 14.1792C10.2233 14.3568 10.3456 14.6009 10.371 14.8638L10.3759 14.9658V15.6741C10.3758 15.947 10.2707 16.2093 10.0824 16.4068C9.8941 16.6043 9.63705 16.7217 9.3645 16.7348C9.09195 16.748 8.82481 16.6557 8.61842 16.4772C8.41203 16.2987 8.28223 16.0477 8.2559 15.7761L8.25094 15.6741V14.9658C8.25094 14.684 8.36288 14.4137 8.56214 14.2145C8.7614 14.0152 9.03165 13.9033 9.31344 13.9033ZM9.31344 1.8616C9.57756 1.86162 9.83222 1.96 10.0277 2.13758C10.2233 2.31516 10.3456 2.5592 10.371 2.8221L10.3759 2.9241V3.63244C10.3758 3.9053 10.2707 4.16765 10.0824 4.36513C9.8941 4.5626 9.63705 4.68007 9.3645 4.69318C9.09195 4.7063 8.82481 4.61405 8.61842 4.43556C8.41203 4.25707 8.28223 4.00602 8.2559 3.73444L8.25094 3.63244V2.9241C8.25094 2.64231 8.36288 2.37206 8.56214 2.1728C8.7614 1.97354 9.03165 1.8616 9.31344 1.8616ZM13.0697 4.03973C13.2619 3.84476 13.5218 3.73146 13.7954 3.72344C14.069 3.71543 14.3352 3.81332 14.5384 3.99671C14.7416 4.1801 14.8662 4.43484 14.8862 4.70783C14.9062 4.98082 14.8201 5.25101 14.6458 5.46206L14.5728 5.54281L14.072 6.0436C13.8799 6.23857 13.6199 6.35187 13.3463 6.35989C13.0727 6.3679 12.8066 6.27001 12.6034 6.08662C12.4002 5.90323 12.2756 5.64849 12.2556 5.3755C12.2356 5.10251 12.3217 4.83232 12.496 4.62127L12.5689 4.54052L13.0697 4.03973ZM4.05406 4.03973C4.24004 3.85362 4.48845 3.74314 4.7512 3.72966C5.01395 3.71618 5.27236 3.80067 5.4764 3.96677L5.55715 4.03973L6.05794 4.54052C6.25291 4.73264 6.36621 4.9926 6.37422 5.26621C6.38224 5.53982 6.28435 5.80596 6.10096 6.00917C5.91757 6.21238 5.66283 6.33697 5.38984 6.35698C5.11684 6.37699 4.84666 6.29086 4.63561 6.11656L4.55486 6.0436L4.05406 5.54281C3.95533 5.44414 3.87701 5.32698 3.82357 5.19803C3.77013 5.06907 3.74262 4.93086 3.74262 4.79127C3.74262 4.65168 3.77013 4.51346 3.82357 4.38451C3.87701 4.25556 3.95533 4.1384 4.05406 4.03973ZM15.6884 8.2366C15.9613 8.23674 16.2236 8.34184 16.4211 8.53014C16.6186 8.71844 16.7361 8.9755 16.7492 9.24804C16.7623 9.52059 16.6701 9.78773 16.4916 9.99412C16.3131 10.2005 16.062 10.3303 15.7904 10.3566L15.6884 10.3616H14.9801C14.7072 10.3615 14.4449 10.2564 14.2474 10.0681C14.0499 9.87976 13.9325 9.62271 13.9194 9.35016C13.9062 9.07762 13.9985 8.81047 14.177 8.60408C14.3555 8.3977 14.6065 8.26789 14.8781 8.24156L14.9801 8.2366H15.6884ZM3.64677 8.2366C3.91963 8.23674 4.18199 8.34184 4.37946 8.53014C4.57694 8.71844 4.69441 8.9755 4.70752 9.24804C4.72063 9.52059 4.62839 9.78773 4.4499 9.99412C4.27141 10.2005 4.02036 10.3303 3.74877 10.3566L3.64677 10.3616H2.93844C2.66558 10.3615 2.40323 10.2564 2.20575 10.0681C2.00827 9.87976 1.89081 9.62271 1.87769 9.35016C1.86458 9.07762 1.95683 8.81047 2.13531 8.60408C2.3138 8.3977 2.56485 8.26789 2.83644 8.24156L2.93844 8.2366H3.64677Z" fill="black"/>
<path opacity="0.3" d="M9.31357 5.0491C12.5854 5.0491 14.6303 8.59077 12.9941 11.4241C12.6211 12.0702 12.0846 12.6067 11.4385 12.9797C10.7924 13.3527 10.0596 13.5491 9.31357 13.5491C6.04178 13.5491 3.99682 10.0074 5.63307 7.1741C6.00608 6.52804 6.54257 5.99154 7.18863 5.61852C7.8347 5.24551 8.56756 5.04912 9.31357 5.0491Z" fill="black"/>
<path d="M4.5548 12.5546C4.74693 12.3596 5.00689 12.2463 5.2805 12.2383C5.5541 12.2303 5.82025 12.3282 6.02346 12.5116C6.22667 12.695 6.35126 12.9497 6.37126 13.2227C6.39127 13.4957 6.30515 13.7659 6.13085 13.9769L6.05789 14.0577L5.5571 14.5585C5.36497 14.7534 5.10501 14.8667 4.8314 14.8748C4.5578 14.8828 4.29165 14.7849 4.08844 14.6015C3.88524 14.4181 3.76064 14.1634 3.74064 13.8904C3.72063 13.6174 3.80675 13.3472 3.98105 13.1361L4.05401 13.0554L4.5548 12.5546ZM12.5689 12.5546C12.7549 12.3685 13.0033 12.258 13.266 12.2445C13.5288 12.2311 13.7872 12.3155 13.9912 12.4816L14.072 12.5546L14.5728 13.0554C14.7677 13.2475 14.881 13.5075 14.889 13.7811C14.8971 14.0547 14.7992 14.3208 14.6158 14.524C14.4324 14.7272 14.1777 14.8518 13.9047 14.8718C13.6317 14.8919 13.3615 14.8057 13.1504 14.6314L13.0697 14.5585L12.5689 14.0577C12.4702 13.959 12.3918 13.8418 12.3384 13.7129C12.285 13.5839 12.2574 13.4457 12.2574 13.3061C12.2574 13.1665 12.285 13.0283 12.3384 12.8994C12.3918 12.7704 12.4702 12.6533 12.5689 12.5546Z" fill="black"/>
</svg>
