<svg width="18" height="18" viewBox="0 0 18 18" fill="none" xmlns="http://www.w3.org/2000/svg">
<path d="M9.01164 3.63243C8.1447 3.63186 7.28922 3.83045 6.51119 4.21289C5.73317 4.59533 5.05341 5.1514 4.52435 5.83818C4.44847 5.93981 4.40747 6.06325 4.40747 6.19008V7.18827C4.40747 8.07368 4.95643 8.86631 5.78518 9.17798L5.91126 9.22047L6.82501 9.50027C7.79755 9.79777 8.7446 9.00656 8.65039 8.0156L8.63693 7.91289L8.51297 7.16985C8.48558 7.00526 8.51717 6.83627 8.60218 6.69269C8.68719 6.54911 8.82015 6.44015 8.97764 6.38502L9.05414 6.36377L9.48764 6.2646C9.7336 6.20838 9.9658 6.10346 10.1706 5.95604C10.3753 5.80861 10.5484 5.62167 10.6798 5.40623C10.8111 5.1908 10.8979 4.95124 10.9351 4.7017C11.0047 4.23547 10.6318 3.84706 10.1703 3.75109C9.78983 3.67198 9.40158 3.63208 9.01164 3.63243ZM10.4283 10.2908L9.32047 11.1769C9.28158 11.208 9.2497 11.247 9.2269 11.2913C9.2041 11.3356 9.1909 11.3842 9.18816 11.4339C9.18542 11.4836 9.1932 11.5334 9.211 11.5799C9.22879 11.6264 9.2562 11.6687 9.29143 11.7039L10.1691 12.5815C10.3391 12.7515 10.463 12.9626 10.5289 13.1935L10.6528 13.6277C10.6565 13.6407 10.6603 13.6535 10.6644 13.6663C10.8739 14.3283 11.7509 14.3092 12.3149 13.9043C12.9016 13.4831 13.1159 12.738 13.0265 12.0214L13.0017 11.8222C12.9727 11.5909 12.887 11.3703 12.7523 11.18C12.6177 10.9897 12.4381 10.8356 12.2296 10.7313L11.1883 10.21C11.0672 10.1494 10.9312 10.1248 10.7965 10.1391C10.6618 10.1534 10.534 10.206 10.4283 10.2908Z" fill="black"/>
<path opacity="0.3" d="M9.0118 2.21577C12.9239 2.21577 16.0951 5.38698 16.0951 9.29911C16.0951 13.2112 12.9239 16.3824 9.0118 16.3824C5.09968 16.3824 1.92847 13.2112 1.92847 9.29911C1.92847 5.38698 5.09968 2.21577 9.0118 2.21577Z" fill="black"/>
</svg>
