<svg width="18" height="18" viewBox="0 0 18 18" fill="none" xmlns="http://www.w3.org/2000/svg">
<path opacity="0.3" d="M17.2043 5.15347C15.9558 5.08477 14.7171 5.4093 13.6626 6.08138C13.4076 5.79097 13.1456 5.50055 12.8693 5.2243L12.6639 5.03305L12.7631 4.94805C13.1095 4.6507 13.3563 4.25425 13.4703 3.81219C13.5843 3.37014 13.56 2.90375 13.4006 2.47597C13.1703 1.99301 12.8047 1.58732 12.3483 1.30817C11.8918 1.02901 11.3641 0.888422 10.8293 0.903467V2.32013C11.0813 2.31663 11.3297 2.38042 11.5489 2.50493C11.768 2.62945 11.95 2.81017 12.076 3.02847C12.1964 3.3118 12.076 3.62347 11.7431 3.95638L11.5801 4.10513C10.8413 3.48943 10.0302 2.96613 9.16473 2.5468C7.37265 1.7393 6.45181 2.11472 5.99848 2.5468C5.86061 2.68549 5.75007 2.84889 5.67265 3.02847L5.54515 3.40388L4.52515 6.47805C5.33265 8.48972 7.28765 12.0668 11.5376 13.611L15.0793 12.4351C15.1987 12.3907 15.304 12.3148 15.3839 12.2155L15.5326 12.088C16.5456 11.0681 15.8939 9.10597 14.5339 7.20055C15.3414 6.72926 16.2713 6.50975 17.2043 6.57013V5.15347Z" fill="black"/>
<path d="M4.02929 7.9868L2.44971 12.7326C1.95883 14.2329 3.07446 15.7749 4.65263 15.7785C4.89364 15.7762 5.13275 15.7356 5.36096 15.6581L9.97929 14.121C7.37272 12.7898 5.28045 10.6327 4.02929 7.9868ZM14.5197 11.0822H14.4772C13.9885 11.3443 11.9626 10.6785 9.66763 8.38347C9.42679 8.14264 9.20013 7.90889 8.99471 7.67514C8.92388 7.59722 8.86013 7.51222 8.78929 7.42722L8.41388 6.97389L8.21554 6.69764C8.11638 6.56305 8.01721 6.42847 7.93221 6.30097C7.84721 6.17347 7.81888 6.1168 7.76221 6.02472C7.70554 5.93264 7.60638 5.78389 7.54263 5.66347C7.47888 5.54305 7.45054 5.49347 7.40804 5.40139C7.36554 5.3093 7.28763 5.20305 7.24513 5.10389C7.20263 5.00472 7.18138 4.94097 7.14596 4.86305C7.11054 4.78514 7.06804 4.6718 7.03971 4.57972C7.01138 4.48764 7.00429 4.44514 6.99013 4.3743C6.97596 4.30347 6.94763 4.2043 6.93346 4.13347C6.93006 4.07685 6.93006 4.02009 6.93346 3.96347C6.92679 3.90226 6.92679 3.84051 6.93346 3.7793L7.01138 3.55972C7.13179 3.43222 7.65596 3.3968 8.59096 3.8218C9.21571 4.12214 9.80717 4.48764 10.3547 4.91264C10.0558 5.04439 9.73846 5.12514 9.41263 5.15347V6.57014C10.1653 6.52832 10.8957 6.29948 11.5376 5.9043L11.8847 6.23014C12.1964 6.53472 12.4726 6.8393 12.7276 7.12972C12.3 7.85778 12.1303 8.70874 12.246 9.54514L13.6626 9.26889C13.6143 9.00189 13.6143 8.72838 13.6626 8.46139C14.5764 9.8568 14.7464 10.8626 14.5197 11.0822Z" fill="black"/>
</svg>
