<svg width="176" height="158" viewBox="0 0 176 158" fill="none" xmlns="http://www.w3.org/2000/svg">
<g filter="url(#filter0_f_506_7684)">
<path d="M149.023 87.1181C149.023 123.185 119.785 137.868 83.7186 137.868C47.6519 137.868 18.4141 123.185 18.4141 87.1181C18.4141 51.0514 61.8023 -7.35264 78.5944 10.4889C90.6638 6.81576 96.9424 -3.24668 113.228 23.3455C134.447 37.9437 149.023 62.8109 149.023 87.1181Z" fill="url(#paint0_linear_506_7684)"/>
</g>
<g filter="url(#filter1_f_506_7684)">
<ellipse cx="120.963" cy="132.766" rx="45.4156" ry="8.33617" fill="url(#paint1_linear_506_7684)" fill-opacity="0.83"/>
</g>
<g filter="url(#filter2_f_506_7684)">
<path d="M149.023 87.1181C149.023 123.185 119.785 137.868 83.7186 137.868C47.6519 137.868 18.4141 123.185 18.4141 87.1181C18.4141 51.0514 61.8023 -7.35264 78.5944 10.4889C90.6638 6.81576 96.9424 -3.24668 113.228 23.3455C134.447 37.9437 149.023 62.8109 149.023 87.1181Z" fill="url(#paint2_linear_506_7684)"/>
</g>
<g filter="url(#filter3_f_506_7684)">
<path d="M133.897 85.433C133.897 113.146 111.431 124.428 83.7182 124.428C56.005 124.428 33.5391 113.146 33.5391 85.433C33.5391 57.7199 56.005 35.2539 83.7182 35.2539C111.431 35.2539 133.897 57.7199 133.897 85.433Z" fill="#FFE3C9"/>
</g>
<g filter="url(#filter4_f_506_7684)">
<ellipse cx="56.3517" cy="81.9366" rx="11.3674" ry="3.49133" fill="#FF7308"/>
</g>
<g filter="url(#filter5_f_506_7684)">
<ellipse cx="110.078" cy="81.9366" rx="11.3674" ry="3.49133" fill="#FF7308"/>
</g>
<ellipse cx="67.5111" cy="73.7388" rx="4.70646" ry="8.19976" fill="#7C4B25"/>
<ellipse cx="99.9252" cy="72.6021" rx="4.70646" ry="8.19976" fill="#7C4B25"/>
<g filter="url(#filter6_f_506_7684)">
<circle cx="99.0278" cy="67.871" r="1.14839" fill="white"/>
</g>
<g filter="url(#filter7_f_506_7684)">
<circle cx="66.3627" cy="69.0195" r="1.14839" fill="white"/>
</g>
<path d="M61.7969 55.4961L74.8906 58.9886" stroke="#7C4B25" stroke-width="2" stroke-linecap="round"/>
<path d="M104.422 50.668L91.3281 54.1605" stroke="#7C4B25" stroke-width="2" stroke-linecap="round"/>
<path d="M72.25 92.1874C82.1937 92.7236 96.8757 92.9545 98.7097 88.5977" stroke="#6A4020" stroke-width="2" stroke-linecap="round"/>
<g filter="url(#filter8_f_506_7684)">
<path d="M95.2649 6.12187C82.194 7.20539 52.1912 8.77384 54.665 47.4958C76.4219 25.9832 92.6737 50.9645 95.2649 6.12187Z" fill="url(#paint3_radial_506_7684)"/>
</g>
<defs>
<filter id="filter0_f_506_7684" x="17.9141" y="5.04297" width="131.609" height="133.324" filterUnits="userSpaceOnUse" color-interpolation-filters="sRGB">
<feFlood flood-opacity="0" result="BackgroundImageFix"/>
<feBlend mode="normal" in="SourceGraphic" in2="BackgroundImageFix" result="shape"/>
<feGaussianBlur stdDeviation="0.25" result="effect1_foregroundBlur_506_7684"/>
</filter>
<filter id="filter1_f_506_7684" x="66.6263" y="115.509" width="108.672" height="34.513" filterUnits="userSpaceOnUse" color-interpolation-filters="sRGB">
<feFlood flood-opacity="0" result="BackgroundImageFix"/>
<feBlend mode="normal" in="SourceGraphic" in2="BackgroundImageFix" result="shape"/>
<feGaussianBlur stdDeviation="4.46028" result="effect1_foregroundBlur_506_7684"/>
</filter>
<filter id="filter2_f_506_7684" x="12.9141" y="0.0429688" width="141.609" height="143.324" filterUnits="userSpaceOnUse" color-interpolation-filters="sRGB">
<feFlood flood-opacity="0" result="BackgroundImageFix"/>
<feBlend mode="normal" in="SourceGraphic" in2="BackgroundImageFix" result="shape"/>
<feGaussianBlur stdDeviation="2.75" result="effect1_foregroundBlur_506_7684"/>
</filter>
<filter id="filter3_f_506_7684" x="0.10387" y="1.81871" width="167.229" height="156.046" filterUnits="userSpaceOnUse" color-interpolation-filters="sRGB">
<feFlood flood-opacity="0" result="BackgroundImageFix"/>
<feBlend mode="normal" in="SourceGraphic" in2="BackgroundImageFix" result="shape"/>
<feGaussianBlur stdDeviation="16.7176" result="effect1_foregroundBlur_506_7684"/>
</filter>
<filter id="filter4_f_506_7684" x="29.1444" y="62.6053" width="54.4149" height="38.6644" filterUnits="userSpaceOnUse" color-interpolation-filters="sRGB">
<feFlood flood-opacity="0" result="BackgroundImageFix"/>
<feBlend mode="normal" in="SourceGraphic" in2="BackgroundImageFix" result="shape"/>
<feGaussianBlur stdDeviation="7.92" result="effect1_foregroundBlur_506_7684"/>
</filter>
<filter id="filter5_f_506_7684" x="82.8709" y="62.6053" width="54.4149" height="38.6644" filterUnits="userSpaceOnUse" color-interpolation-filters="sRGB">
<feFlood flood-opacity="0" result="BackgroundImageFix"/>
<feBlend mode="normal" in="SourceGraphic" in2="BackgroundImageFix" result="shape"/>
<feGaussianBlur stdDeviation="7.92" result="effect1_foregroundBlur_506_7684"/>
</filter>
<filter id="filter6_f_506_7684" x="96.3871" y="65.2303" width="5.28152" height="5.28152" filterUnits="userSpaceOnUse" color-interpolation-filters="sRGB">
<feFlood flood-opacity="0" result="BackgroundImageFix"/>
<feBlend mode="normal" in="SourceGraphic" in2="BackgroundImageFix" result="shape"/>
<feGaussianBlur stdDeviation="0.746162" result="effect1_foregroundBlur_506_7684"/>
</filter>
<filter id="filter7_f_506_7684" x="63.722" y="66.3788" width="5.28152" height="5.28152" filterUnits="userSpaceOnUse" color-interpolation-filters="sRGB">
<feFlood flood-opacity="0" result="BackgroundImageFix"/>
<feBlend mode="normal" in="SourceGraphic" in2="BackgroundImageFix" result="shape"/>
<feGaussianBlur stdDeviation="0.746162" result="effect1_foregroundBlur_506_7684"/>
</filter>
<filter id="filter8_f_506_7684" x="52.9013" y="4.50164" width="43.983" height="44.6139" filterUnits="userSpaceOnUse" color-interpolation-filters="sRGB">
<feFlood flood-opacity="0" result="BackgroundImageFix"/>
<feBlend mode="normal" in="SourceGraphic" in2="BackgroundImageFix" result="shape"/>
<feGaussianBlur stdDeviation="0.809726" result="effect1_foregroundBlur_506_7684"/>
</filter>
<linearGradient id="paint0_linear_506_7684" x1="83.7186" y1="38.3997" x2="83.7186" y2="135.837" gradientUnits="userSpaceOnUse">
<stop stop-color="#FF7700"/>
<stop offset="1" stop-color="#FF756E"/>
</linearGradient>
<linearGradient id="paint1_linear_506_7684" x1="75.5469" y1="132.766" x2="166.378" y2="132.766" gradientUnits="userSpaceOnUse">
<stop stop-color="#3B4E43"/>
<stop offset="1" stop-color="#88B49B" stop-opacity="0"/>
</linearGradient>
<linearGradient id="paint2_linear_506_7684" x1="83.7186" y1="38.3997" x2="83.7186" y2="135.837" gradientUnits="userSpaceOnUse">
<stop stop-color="#FF7700"/>
<stop offset="1" stop-color="#FF756E"/>
</linearGradient>
<radialGradient id="paint3_radial_506_7684" cx="0" cy="0" r="1" gradientUnits="userSpaceOnUse" gradientTransform="translate(94.8334 12.0618) rotate(138.682) scale(45.0047 125.671)">
<stop stop-color="#FA3022"/>
<stop offset="0.826992" stop-color="#FC7200"/>
</radialGradient>
</defs>
</svg>
