<svg width="125" height="150" viewBox="0 0 125 150" fill="none" xmlns="http://www.w3.org/2000/svg">
<mask id="mask0_1006_9301" style="mask-type:alpha" maskUnits="userSpaceOnUse" x="0" y="0" width="125" height="151">
<path d="M25.1214 0.382813C11.4878 0.382814 0.435546 11.4351 0.435547 25.0687L0.43555 125.322C0.435551 138.956 11.4878 150.008 25.1214 150.008H29.2094C42.843 150.008 53.8953 138.956 53.8953 125.322L53.8952 0.382812L25.1214 0.382813Z" fill="white"/>
<path d="M75.8729 84.1798C73.1888 84.1798 71.0129 82.0039 71.0129 79.3198V7.7572C71.0129 3.68479 74.3142 0.383453 78.3866 0.383453L82.5744 0.383453C105.714 0.383454 124.473 19.1419 124.473 42.2816C124.473 65.4213 105.714 84.1798 82.5744 84.1798H75.8729Z" fill="white"/>
<path d="M75.8729 95.7706C73.1888 95.7706 71.0129 97.9465 71.0129 100.631V123.265C71.0129 138.028 82.9802 149.995 97.7427 149.995C112.505 149.995 124.473 137.838 124.473 123.075C124.473 108.102 112.334 95.7706 97.3604 95.7706H75.8729Z" fill="white"/>
<path d="M85.8594 75.2024C85.8594 80.164 81.8372 84.1862 76.8755 84.1862L9.41979 84.1862C4.45815 84.1862 0.435948 80.164 0.435949 75.2024C0.43595 70.2407 4.45815 66.2185 9.41979 66.2185L76.8755 66.2186C81.8372 66.2186 85.8594 70.2407 85.8594 75.2024Z" fill="white"/>
<path d="M85.8594 9.36695C85.8594 14.3286 81.8372 18.3508 76.8755 18.3508L27.888 18.3508C22.9263 18.3508 18.9041 14.3286 18.9042 9.36694C18.9042 4.40531 22.9264 0.383111 27.888 0.383112L76.8755 0.38312C81.8372 0.383121 85.8594 4.40532 85.8594 9.36695Z" fill="white"/>
</mask>
<g mask="url(#mask0_1006_9301)">
<path d="M152.345 49.5713C132.524 115.227 71.2303 125.889 5.57414 106.069C-60.082 86.2481 -105.238 43.4513 -85.4174 -22.2049C-65.5969 -87.8611 3.69555 -125.018 69.3517 -105.198C135.008 -85.3774 172.165 -16.0849 152.345 49.5713Z" fill="#98E1EB"/>
<path d="M201.968 280.544C154.922 323.373 101.049 302.671 58.2194 255.625C15.3898 208.579 -0.177676 153.005 46.8684 110.175C93.9144 67.3453 166.773 70.7633 209.603 117.809C252.432 164.855 249.014 237.714 201.968 280.544Z" fill="#FAF087"/>
<path d="M118.137 155.826C135.36 224.067 87.0519 265.811 18.8112 283.034C-49.4295 300.257 -111.761 286.438 -128.984 218.197C-146.208 149.957 -104.85 80.6745 -36.6093 63.4512C31.6314 46.228 100.914 87.5857 118.137 155.826Z" fill="#A2FBAA"/>
<path d="M86.9019 -7.75668C97.8042 -19.9535 112.13 -16.0808 124.327 -5.17848C136.524 5.72388 141.973 19.5274 131.071 31.7243C120.168 43.9211 101.443 44.9705 89.2457 34.0681C77.0489 23.1658 75.9995 4.44016 86.9019 -7.75668Z" fill="#FFBB80"/>
</g>
</svg>
