<svg width="76" height="92" viewBox="0 0 76 92" fill="none" xmlns="http://www.w3.org/2000/svg">
<mask id="mask0_496_2734" style="mask-type:alpha" maskUnits="userSpaceOnUse" x="0" y="0" width="76" height="92">
<path d="M16.492 0.65625C7.52178 0.65625 0.25 7.92804 0.25 16.8982L0.250002 75.3316C0.250002 84.3018 7.52179 91.5736 16.492 91.5736C25.4622 91.5736 32.734 84.3018 32.734 75.3316L32.734 16.8982C32.734 7.92802 25.4622 0.65625 16.492 0.65625Z" fill="white"/>
<path d="M46.0883 40.6561C44.4573 40.6561 43.1352 41.9783 43.1352 43.6092L43.1352 75.3317C43.1352 84.3019 50.407 91.5737 59.3772 91.5737C68.3474 91.5737 75.6191 84.3019 75.6191 75.3317V66.1149C75.6191 52.0544 64.2209 40.6561 50.1604 40.6561H46.0883Z" fill="white"/>
<path d="M59.3763 0.656262C50.4061 0.656262 43.1344 7.92805 43.1344 16.8983V17.3629C43.1344 26.3331 50.4061 33.6049 59.3763 33.6049C68.3465 33.6049 75.6183 26.3331 75.6183 17.3629V16.8983C75.6183 7.92805 68.3465 0.656262 59.3763 0.656262Z" fill="white"/>
<path d="M59.3763 0.656262C50.4061 0.656262 43.1344 7.92805 43.1344 16.8983V17.3629C43.1344 26.3331 50.4061 33.6049 59.3763 33.6049C68.3465 33.6049 75.6183 26.3331 75.6183 17.3629V16.8983C75.6183 7.92805 68.3465 0.656262 59.3763 0.656262Z" fill="white"/>
<path d="M52.1578 46.1157C52.1578 43.1009 49.7138 40.6569 46.6989 40.6569L5.71046 40.6569C2.6956 40.6569 0.251565 43.1009 0.251566 46.1158C0.251566 49.1306 2.6956 51.5746 5.71046 51.5746L46.6989 51.5746C49.7138 51.5746 52.1578 49.1306 52.1578 46.1157Z" fill="white"/>
</mask>
<g mask="url(#mask0_496_2734)">
<g filter="url(#filter0_f_496_2734)">
<path d="M194.364 99.2092C194.364 147.55 155.175 167.231 106.834 167.231C58.493 167.231 19.3047 147.55 19.3047 99.2092C19.3047 50.868 58.493 11.6797 106.834 11.6797C155.175 11.6797 194.364 50.868 194.364 99.2092Z" fill="url(#paint0_linear_496_2734)"/>
</g>
<g filter="url(#filter1_f_496_2734)">
<path d="M60.3009 64.6444C71.1901 99.028 47.7497 121.853 13.366 132.742C-21.0176 143.631 -53.3241 138.461 -64.2132 104.077C-75.1023 69.6937 -56.0563 32.9929 -21.6726 22.1038C12.711 11.2147 49.4118 30.2607 60.3009 64.6444Z" fill="url(#paint1_radial_496_2734)"/>
</g>
<g filter="url(#filter2_f_496_2734)">
<ellipse cx="120.604" cy="57.4401" rx="50.2468" ry="9.22294" transform="rotate(18.1405 120.604 57.4401)" fill="url(#paint2_linear_496_2734)" fill-opacity="0.83"/>
</g>
<g filter="url(#filter3_f_496_2734)">
<path d="M150.503 12.1247C140.957 41.2619 113.45 45.3851 84.3131 35.8388C55.1759 26.2924 35.442 6.69164 44.9883 -22.4456C54.5346 -51.5828 85.8938 -67.4643 115.031 -57.918C144.168 -48.3717 160.05 -17.0125 150.503 12.1247Z" fill="#FFE3C9"/>
</g>
<g filter="url(#filter4_f_496_2734)">
<ellipse cx="70.1785" cy="-18.2573" rx="12.5766" ry="3.86273" transform="rotate(18.1405 70.1785 -18.2573)" fill="#FF7308"/>
</g>
<g filter="url(#filter5_f_496_2734)">
<path d="M165.825 19.1197C153.401 57.0397 117.603 62.4057 79.6831 49.9819C41.7631 37.558 16.0808 12.049 28.5046 -25.871C40.9285 -63.791 81.7402 -84.4597 119.66 -72.0359C157.58 -59.612 178.249 -18.8003 165.825 19.1197Z" fill="url(#paint3_linear_496_2734)"/>
</g>
<g filter="url(#filter6_f_496_2734)">
<path d="M27.7629 9.47221C19.2575 35.8479 -5.5868 39.6907 -31.9625 31.1853C-58.3382 22.6799 -76.2573 5.04718 -67.7519 -21.3285C-59.2465 -47.7042 -30.9698 -62.191 -4.59414 -53.6856C21.7816 -45.1802 36.2683 -16.9035 27.7629 9.47221Z" fill="#CBFFE8"/>
</g>
<g filter="url(#filter7_f_496_2734)">
<ellipse cx="6.16512" cy="-1.16401" rx="11.3674" ry="6.6609" transform="rotate(17.873 6.16512 -1.16401)" fill="#0894FF"/>
</g>
<g filter="url(#filter8_f_496_2734)">
<path d="M41.6461 15.7222C30.577 50.0483 -1.75618 55.0494 -36.0823 43.9802C-70.4084 32.9111 -93.7288 9.96335 -82.6597 -24.3627C-71.5905 -58.6888 -34.7904 -77.5423 -0.464302 -66.4731C33.8618 -55.404 52.7153 -18.6039 41.6461 15.7222Z" fill="url(#paint4_linear_496_2734)"/>
</g>
</g>
<defs>
<filter id="filter0_f_496_2734" x="18.8047" y="11.1797" width="176.062" height="156.555" filterUnits="userSpaceOnUse" color-interpolation-filters="sRGB">
<feFlood flood-opacity="0" result="BackgroundImageFix"/>
<feBlend mode="normal" in="SourceGraphic" in2="BackgroundImageFix" result="shape"/>
<feGaussianBlur stdDeviation="0.25" result="effect1_foregroundBlur_496_2734"/>
</filter>
<filter id="filter1_f_496_2734" x="-67.7812" y="18.5391" width="131.273" height="119.812" filterUnits="userSpaceOnUse" color-interpolation-filters="sRGB">
<feFlood flood-opacity="0" result="BackgroundImageFix"/>
<feBlend mode="normal" in="SourceGraphic" in2="BackgroundImageFix" result="shape"/>
<feGaussianBlur stdDeviation="0.25" result="effect1_foregroundBlur_496_2734"/>
</filter>
<filter id="filter2_f_496_2734" x="63.8451" y="30.5873" width="113.521" height="53.7083" filterUnits="userSpaceOnUse" color-interpolation-filters="sRGB">
<feFlood flood-opacity="0" result="BackgroundImageFix"/>
<feBlend mode="normal" in="SourceGraphic" in2="BackgroundImageFix" result="shape"/>
<feGaussianBlur stdDeviation="4.46028" result="effect1_foregroundBlur_496_2734"/>
</filter>
<filter id="filter3_f_496_2734" x="9.12731" y="-94.1305" width="177.589" height="168.003" filterUnits="userSpaceOnUse" color-interpolation-filters="sRGB">
<feFlood flood-opacity="0" result="BackgroundImageFix"/>
<feBlend mode="normal" in="SourceGraphic" in2="BackgroundImageFix" result="shape"/>
<feGaussianBlur stdDeviation="16.7176" result="effect1_foregroundBlur_496_2734"/>
</filter>
<filter id="filter4_f_496_2734" x="42.3241" y="-39.465" width="55.7034" height="42.4144" filterUnits="userSpaceOnUse" color-interpolation-filters="sRGB">
<feFlood flood-opacity="0" result="BackgroundImageFix"/>
<feBlend mode="normal" in="SourceGraphic" in2="BackgroundImageFix" result="shape"/>
<feGaussianBlur stdDeviation="7.92" result="effect1_foregroundBlur_496_2734"/>
</filter>
<filter id="filter5_f_496_2734" x="24.8438" y="-76.1484" width="145.094" height="132.617" filterUnits="userSpaceOnUse" color-interpolation-filters="sRGB">
<feFlood flood-opacity="0" result="BackgroundImageFix"/>
<feBlend mode="normal" in="SourceGraphic" in2="BackgroundImageFix" result="shape"/>
<feGaussianBlur stdDeviation="0.25" result="effect1_foregroundBlur_496_2734"/>
</filter>
<filter id="filter6_f_496_2734" x="-103.326" y="-89.5524" width="166.956" height="158.222" filterUnits="userSpaceOnUse" color-interpolation-filters="sRGB">
<feFlood flood-opacity="0" result="BackgroundImageFix"/>
<feBlend mode="normal" in="SourceGraphic" in2="BackgroundImageFix" result="shape"/>
<feGaussianBlur stdDeviation="16.7176" result="effect1_foregroundBlur_496_2734"/>
</filter>
<filter id="filter7_f_496_2734" x="-20.6838" y="-24.2384" width="53.7034" height="46.1488" filterUnits="userSpaceOnUse" color-interpolation-filters="sRGB">
<feFlood flood-opacity="0" result="BackgroundImageFix"/>
<feBlend mode="normal" in="SourceGraphic" in2="BackgroundImageFix" result="shape"/>
<feGaussianBlur stdDeviation="7.92" result="effect1_foregroundBlur_496_2734"/>
</filter>
<filter id="filter8_f_496_2734" x="-85.9375" y="-70.1406" width="131.25" height="119.891" filterUnits="userSpaceOnUse" color-interpolation-filters="sRGB">
<feFlood flood-opacity="0" result="BackgroundImageFix"/>
<feBlend mode="normal" in="SourceGraphic" in2="BackgroundImageFix" result="shape"/>
<feGaussianBlur stdDeviation="0.25" result="effect1_foregroundBlur_496_2734"/>
</filter>
<linearGradient id="paint0_linear_496_2734" x1="106.834" y1="33.9105" x2="106.834" y2="164.508" gradientUnits="userSpaceOnUse">
<stop stop-color="#FFEE00"/>
<stop offset="1" stop-color="#F5C000"/>
</linearGradient>
<radialGradient id="paint1_radial_496_2734" cx="0" cy="0" r="1" gradientUnits="userSpaceOnUse" gradientTransform="translate(-1.95613 84.3609) rotate(72.4273) scale(48.7184 179.34)">
<stop stop-color="#8DFFB3"/>
<stop offset="1" stop-color="#09E464"/>
</radialGradient>
<linearGradient id="paint2_linear_496_2734" x1="70.3575" y1="57.4401" x2="170.851" y2="57.4401" gradientUnits="userSpaceOnUse">
<stop stop-color="#3B4E43"/>
<stop offset="1" stop-color="#88B49B" stop-opacity="0"/>
</linearGradient>
<linearGradient id="paint3_linear_496_2734" x1="66.8275" y1="17.7407" x2="139.206" y2="66.9986" gradientUnits="userSpaceOnUse">
<stop stop-color="#FF7700"/>
<stop offset="1" stop-color="#F5004E"/>
</linearGradient>
<linearGradient id="paint4_linear_496_2734" x1="31.7036" y1="32.1791" x2="-35.4589" y2="42.047" gradientUnits="userSpaceOnUse">
<stop offset="0.703672" stop-color="#6FBCFF"/>
<stop offset="1" stop-color="#007BE0"/>
</linearGradient>
</defs>
</svg>
