<svg width="279" height="277" viewBox="0 0 279 277" fill="none" xmlns="http://www.w3.org/2000/svg">
<g filter="url(#filter0_f_503_7230)">
<circle cx="87.6565" cy="133.344" r="1.10178" fill="white"/>
</g>
<g filter="url(#filter1_f_503_7230)">
<circle cx="117.048" cy="133.344" r="1.10178" fill="white"/>
</g>
<g filter="url(#filter2_f_503_7230)">
<circle cx="149.409" cy="133.344" r="1.10178" fill="white"/>
</g>
<g filter="url(#filter3_f_503_7230)">
<circle cx="87.6581" cy="115.436" r="1.20518" fill="white"/>
</g>
<g filter="url(#filter4_f_503_7230)">
<ellipse cx="181.821" cy="218.045" rx="51.8716" ry="9.52117" fill="url(#paint0_linear_503_7230)" fill-opacity="0.83"/>
</g>
<g filter="url(#filter5_f_503_7230)">
<path d="M227.288 149.653C227.288 205.022 187.883 227.563 139.274 227.563C90.6652 227.563 51.26 205.022 51.26 149.653C51.26 94.284 90.6652 49.3984 139.274 49.3984C187.883 49.3984 227.288 94.284 227.288 149.653Z" fill="#FF4800"/>
</g>
<g filter="url(#filter6_f_503_7230)">
<path d="M240.181 150.971C240.181 212.842 195.009 238.029 139.286 238.029C83.5638 238.029 38.3918 212.842 38.3918 150.971C38.3918 89.1011 83.5638 38.9453 139.286 38.9453C195.009 38.9453 240.181 89.1011 240.181 150.971Z" fill="url(#paint1_radial_503_7230)"/>
</g>
<g filter="url(#filter7_f_503_7230)">
<path d="M119.081 130.875C119.081 139.098 112.636 145.765 104.685 145.765C96.7347 145.765 90.2896 139.098 90.2896 130.875C90.2896 122.651 96.7347 115.984 104.685 115.984C112.636 115.984 119.081 122.651 119.081 130.875Z" fill="#FF6A00"/>
</g>
<g filter="url(#filter8_f_503_7230)">
<path d="M185.192 130.875C185.192 139.098 178.747 145.765 170.796 145.765C162.846 145.765 156.401 139.098 156.401 130.875C156.401 122.651 162.846 115.984 170.796 115.984C178.747 115.984 185.192 122.651 185.192 130.875Z" fill="#FF6A00"/>
</g>
<circle cx="121.008" cy="117.895" r="5.37549" fill="#354239"/>
<circle cx="157.568" cy="117.145" r="5.37549" fill="#354239"/>
<g filter="url(#filter9_f_503_7230)">
<path d="M117.163 37.457C116.926 43.3727 119.529 55.5353 131.834 56.8604C132.78 52.049 131.171 41.4325 117.163 37.457Z" fill="url(#paint2_radial_503_7230)"/>
</g>
<g filter="url(#filter10_f_503_7230)">
<path d="M118.83 19.8086C124.831 24.1561 135.64 37.3018 130.869 55.1042" stroke="url(#paint3_linear_503_7230)" stroke-width="1.56612" stroke-linecap="round"/>
</g>
<g filter="url(#filter11_f_503_7230)">
<path d="M123.897 18.1916C123.897 22.9918 120.392 24.9461 116.069 24.9461C111.745 24.9461 108.241 22.9918 108.241 18.1916C108.241 13.3914 111.745 9.5 116.069 9.5C120.392 9.5 123.897 13.3914 123.897 18.1916Z" fill="url(#paint4_radial_503_7230)"/>
</g>
<g filter="url(#filter12_f_503_7230)">
<path d="M152.476 26.0234C152.852 35.4251 148.715 54.755 129.16 56.8609C127.655 49.2143 130.212 32.3416 152.476 26.0234Z" fill="url(#paint5_radial_503_7230)"/>
</g>
<path d="M128.81 130.727C132.628 133.665 142.381 137.779 150.845 130.727" stroke="#36493C" stroke-width="2.52146" stroke-linecap="round"/>
<g filter="url(#filter13_f_503_7230)">
<circle cx="119.807" cy="115.436" r="1.20518" fill="white"/>
</g>
<g filter="url(#filter14_f_503_7230)">
<circle cx="155.206" cy="115.436" r="1.20518" fill="white"/>
</g>
<defs>
<filter id="filter0_f_503_7230" x="85.1229" y="130.81" width="5.06713" height="5.06664" filterUnits="userSpaceOnUse" color-interpolation-filters="sRGB">
<feFlood flood-opacity="0" result="BackgroundImageFix"/>
<feBlend mode="normal" in="SourceGraphic" in2="BackgroundImageFix" result="shape"/>
<feGaussianBlur stdDeviation="0.715879" result="effect1_foregroundBlur_503_7230"/>
</filter>
<filter id="filter1_f_503_7230" x="114.514" y="130.81" width="5.06713" height="5.06664" filterUnits="userSpaceOnUse" color-interpolation-filters="sRGB">
<feFlood flood-opacity="0" result="BackgroundImageFix"/>
<feBlend mode="normal" in="SourceGraphic" in2="BackgroundImageFix" result="shape"/>
<feGaussianBlur stdDeviation="0.715879" result="effect1_foregroundBlur_503_7230"/>
</filter>
<filter id="filter2_f_503_7230" x="146.876" y="130.81" width="5.06713" height="5.06664" filterUnits="userSpaceOnUse" color-interpolation-filters="sRGB">
<feFlood flood-opacity="0" result="BackgroundImageFix"/>
<feBlend mode="normal" in="SourceGraphic" in2="BackgroundImageFix" result="shape"/>
<feGaussianBlur stdDeviation="0.715879" result="effect1_foregroundBlur_503_7230"/>
</filter>
<filter id="filter3_f_503_7230" x="84.8868" y="112.664" width="5.54265" height="5.5424" filterUnits="userSpaceOnUse" color-interpolation-filters="sRGB">
<feFlood flood-opacity="0" result="BackgroundImageFix"/>
<feBlend mode="normal" in="SourceGraphic" in2="BackgroundImageFix" result="shape"/>
<feGaussianBlur stdDeviation="0.783062" result="effect1_foregroundBlur_503_7230"/>
</filter>
<filter id="filter4_f_503_7230" x="119.761" y="198.335" width="124.12" height="39.4202" filterUnits="userSpaceOnUse" color-interpolation-filters="sRGB">
<feFlood flood-opacity="0" result="BackgroundImageFix"/>
<feBlend mode="normal" in="SourceGraphic" in2="BackgroundImageFix" result="shape"/>
<feGaussianBlur stdDeviation="5.09431" result="effect1_foregroundBlur_503_7230"/>
</filter>
<filter id="filter5_f_503_7230" x="41.1852" y="39.3236" width="196.178" height="198.314" filterUnits="userSpaceOnUse" color-interpolation-filters="sRGB">
<feFlood flood-opacity="0" result="BackgroundImageFix"/>
<feBlend mode="normal" in="SourceGraphic" in2="BackgroundImageFix" result="shape"/>
<feGaussianBlur stdDeviation="5.03742" result="effect1_foregroundBlur_503_7230"/>
</filter>
<filter id="filter6_f_503_7230" x="0.203781" y="0.757248" width="278.165" height="275.462" filterUnits="userSpaceOnUse" color-interpolation-filters="sRGB">
<feFlood flood-opacity="0" result="BackgroundImageFix"/>
<feBlend mode="normal" in="SourceGraphic" in2="BackgroundImageFix" result="shape"/>
<feGaussianBlur stdDeviation="19.094" result="effect1_foregroundBlur_503_7230"/>
</filter>
<filter id="filter7_f_503_7230" x="64.9788" y="90.6737" width="79.4127" height="80.4027" filterUnits="userSpaceOnUse" color-interpolation-filters="sRGB">
<feFlood flood-opacity="0" result="BackgroundImageFix"/>
<feBlend mode="normal" in="SourceGraphic" in2="BackgroundImageFix" result="shape"/>
<feGaussianBlur stdDeviation="12.6554" result="effect1_foregroundBlur_503_7230"/>
</filter>
<filter id="filter8_f_503_7230" x="131.09" y="90.6737" width="79.4127" height="80.4027" filterUnits="userSpaceOnUse" color-interpolation-filters="sRGB">
<feFlood flood-opacity="0" result="BackgroundImageFix"/>
<feBlend mode="normal" in="SourceGraphic" in2="BackgroundImageFix" result="shape"/>
<feGaussianBlur stdDeviation="12.6554" result="effect1_foregroundBlur_503_7230"/>
</filter>
<filter id="filter9_f_503_7230" x="115.299" y="35.6074" width="18.6051" height="23.1017" filterUnits="userSpaceOnUse" color-interpolation-filters="sRGB">
<feFlood flood-opacity="0" result="BackgroundImageFix"/>
<feBlend mode="normal" in="SourceGraphic" in2="BackgroundImageFix" result="shape"/>
<feGaussianBlur stdDeviation="0.92483" result="effect1_foregroundBlur_503_7230"/>
</filter>
<filter id="filter10_f_503_7230" x="116.481" y="17.4612" width="17.9223" height="39.9916" filterUnits="userSpaceOnUse" color-interpolation-filters="sRGB">
<feFlood flood-opacity="0" result="BackgroundImageFix"/>
<feBlend mode="normal" in="SourceGraphic" in2="BackgroundImageFix" result="shape"/>
<feGaussianBlur stdDeviation="0.783062" result="effect1_foregroundBlur_503_7230"/>
</filter>
<filter id="filter11_f_503_7230" x="105.311" y="6.57" width="21.516" height="21.3053" filterUnits="userSpaceOnUse" color-interpolation-filters="sRGB">
<feFlood flood-opacity="0" result="BackgroundImageFix"/>
<feBlend mode="normal" in="SourceGraphic" in2="BackgroundImageFix" result="shape"/>
<feGaussianBlur stdDeviation="1.465" result="effect1_foregroundBlur_503_7230"/>
</filter>
<filter id="filter12_f_503_7230" x="126.959" y="24.1738" width="27.3888" height="34.5353" filterUnits="userSpaceOnUse" color-interpolation-filters="sRGB">
<feFlood flood-opacity="0" result="BackgroundImageFix"/>
<feBlend mode="normal" in="SourceGraphic" in2="BackgroundImageFix" result="shape"/>
<feGaussianBlur stdDeviation="0.92483" result="effect1_foregroundBlur_503_7230"/>
</filter>
<filter id="filter13_f_503_7230" x="117.036" y="112.664" width="5.54265" height="5.5424" filterUnits="userSpaceOnUse" color-interpolation-filters="sRGB">
<feFlood flood-opacity="0" result="BackgroundImageFix"/>
<feBlend mode="normal" in="SourceGraphic" in2="BackgroundImageFix" result="shape"/>
<feGaussianBlur stdDeviation="0.783062" result="effect1_foregroundBlur_503_7230"/>
</filter>
<filter id="filter14_f_503_7230" x="152.435" y="112.664" width="5.54265" height="5.5424" filterUnits="userSpaceOnUse" color-interpolation-filters="sRGB">
<feFlood flood-opacity="0" result="BackgroundImageFix"/>
<feBlend mode="normal" in="SourceGraphic" in2="BackgroundImageFix" result="shape"/>
<feGaussianBlur stdDeviation="0.783062" result="effect1_foregroundBlur_503_7230"/>
</filter>
<linearGradient id="paint0_linear_503_7230" x1="129.95" y1="218.045" x2="233.693" y2="218.045" gradientUnits="userSpaceOnUse">
<stop stop-color="#3B4E43"/>
<stop offset="1" stop-color="#88B49B" stop-opacity="0"/>
</linearGradient>
<radialGradient id="paint1_radial_503_7230" cx="0" cy="0" r="1" gradientUnits="userSpaceOnUse" gradientTransform="translate(139.286 138.487) rotate(90) scale(99.542 100.894)">
<stop stop-color="#FFEE00"/>
<stop offset="1" stop-color="#FFA200"/>
</radialGradient>
<radialGradient id="paint2_radial_503_7230" cx="0" cy="0" r="1" gradientUnits="userSpaceOnUse" gradientTransform="translate(119.015 38.024) rotate(57.5136) scale(22.3307 56.1113)">
<stop stop-color="#FFF700"/>
<stop offset="0.485629" stop-color="#FFB200"/>
<stop offset="1" stop-color="#FF6702"/>
</radialGradient>
<linearGradient id="paint3_linear_503_7230" x1="125.441" y1="19.8086" x2="125.441" y2="55.1042" gradientUnits="userSpaceOnUse">
<stop stop-color="#F8FE3B"/>
<stop offset="1" stop-color="#FFC400"/>
</linearGradient>
<radialGradient id="paint4_radial_503_7230" cx="0" cy="0" r="1" gradientUnits="userSpaceOnUse" gradientTransform="translate(116.069 17.223) rotate(90) scale(7.72303 7.82796)">
<stop stop-color="#FFEE00"/>
<stop offset="1" stop-color="#FFA200"/>
</radialGradient>
<radialGradient id="paint5_radial_503_7230" cx="0" cy="0" r="1" gradientUnits="userSpaceOnUse" gradientTransform="translate(149.533 26.9246) rotate(122.486) scale(35.4898 89.1769)">
<stop stop-color="#FFF700"/>
<stop offset="0.485629" stop-color="#FFB200"/>
<stop offset="1" stop-color="#FF8102"/>
</radialGradient>
</defs>
</svg>
