<svg width="18" height="18" viewBox="0 0 18 18" fill="none" xmlns="http://www.w3.org/2000/svg">
<path opacity="0.3" d="M8.64873 3.63661C13.5561 3.63661 16.6231 8.94911 14.1695 13.1991C13.61 14.1682 12.8052 14.973 11.8361 15.5325C10.867 16.092 9.76775 16.3866 8.64873 16.3866C3.74139 16.3866 0.674311 11.0741 3.12798 6.82411C3.68749 5.85501 4.49223 5.05026 5.46132 4.49074C6.43041 3.93122 7.52971 3.63664 8.64873 3.63661Z" fill="black"/>
<path d="M5.36636 2.90774C5.46029 3.07043 5.48574 3.26377 5.43713 3.44522C5.38851 3.62668 5.2698 3.78139 5.10711 3.87532C4.37024 4.30271 3.71561 4.85827 3.17407 5.51582C3.116 5.59062 3.04351 5.65301 2.96091 5.69931C2.8783 5.74561 2.78725 5.77488 2.69314 5.78538C2.59903 5.79588 2.50376 5.78741 2.41298 5.76045C2.3222 5.7335 2.23775 5.68862 2.16461 5.62847C2.09148 5.56831 2.03115 5.4941 1.98719 5.41022C1.94323 5.32635 1.91654 5.23451 1.90869 5.14014C1.90084 5.04577 1.91199 4.95078 1.94148 4.8608C1.97098 4.77081 2.01822 4.68765 2.08041 4.61624C2.72828 3.82668 3.51314 3.16035 4.39736 2.6492C4.47791 2.60255 4.56685 2.57223 4.65912 2.55998C4.75139 2.54773 4.84517 2.55378 4.93509 2.57779C5.02502 2.6018 5.10933 2.6433 5.18321 2.69992C5.25709 2.75653 5.31908 2.82715 5.36566 2.90774H5.36636ZM12.8988 2.6492C13.7832 3.16007 14.5683 3.82616 15.2164 4.61553C15.3295 4.76119 15.3814 4.94522 15.3609 5.12849C15.3405 5.31177 15.2494 5.47984 15.1069 5.59699C14.9645 5.71413 14.782 5.77112 14.5982 5.75583C14.4145 5.74054 14.2439 5.65419 14.1228 5.51511C13.5823 4.85673 12.9274 4.30124 12.1897 3.87532C12.0271 3.7812 11.9086 3.62635 11.8602 3.44483C11.8118 3.2633 11.8374 3.06998 11.9316 2.90738C12.0257 2.74479 12.1805 2.62624 12.362 2.57782C12.5436 2.52941 12.7362 2.55508 12.8988 2.6492ZM8.64878 6.46995C8.47529 6.46997 8.30783 6.53367 8.17818 6.64895C8.04853 6.76424 7.9657 6.9231 7.94541 7.09541L7.94045 7.17828V10.0017C7.93832 10.1589 7.98861 10.3134 8.08353 10.4387L8.14728 10.5124L9.63903 12.0034C9.76621 12.1318 9.93764 12.2068 10.1183 12.2129C10.2989 12.219 10.475 12.1559 10.6106 12.0364C10.7462 11.9169 10.8309 11.7502 10.8476 11.5702C10.8642 11.3903 10.8115 11.2108 10.7001 11.0684L10.6406 11.0019L9.35711 9.71836V7.17828C9.35711 6.99042 9.28249 6.81025 9.14965 6.67741C9.01681 6.54458 8.83664 6.46995 8.64878 6.46995Z" fill="black"/>
</svg>
