<svg width="26" height="27" viewBox="0 0 26 27" fill="none" xmlns="http://www.w3.org/2000/svg">
<rect width="25" height="26" transform="translate(0.5 0.572021)" fill="white"/>
<path d="M21.3333 9.23869L15.0833 3.54036C14.5104 3.00741 13.7687 2.71277 13 2.71277C12.2313 2.71277 11.4896 3.00741 10.9167 3.54036L4.66667 9.23869C4.33581 9.54644 4.07178 9.92396 3.89217 10.3461C3.71255 10.7683 3.62148 11.2254 3.62501 11.687V21.1554C3.62501 22.0173 3.95425 22.844 4.5403 23.4535C5.12635 24.063 5.92121 24.4054 6.75001 24.4054H19.25C20.0788 24.4054 20.8737 24.063 21.4597 23.4535C22.0458 22.844 22.375 22.0173 22.375 21.1554V11.6762C22.3771 11.2164 22.2853 10.7614 22.1057 10.3412C21.9261 9.921 21.6629 9.54523 21.3333 9.23869ZM15.0833 22.2387H10.9167V16.822C10.9167 16.5347 11.0264 16.2592 11.2218 16.056C11.4171 15.8528 11.6821 15.7387 11.9583 15.7387H14.0417C14.3179 15.7387 14.5829 15.8528 14.7782 16.056C14.9736 16.2592 15.0833 16.5347 15.0833 16.822V22.2387ZM20.2917 21.1554C20.2917 21.4427 20.1819 21.7182 19.9866 21.9214C19.7912 22.1246 19.5263 22.2387 19.25 22.2387H17.1667V16.822C17.1667 15.9601 16.8374 15.1334 16.2514 14.5239C15.6653 13.9144 14.8705 13.572 14.0417 13.572H11.9583C11.1295 13.572 10.3347 13.9144 9.74863 14.5239C9.16258 15.1334 8.83334 15.9601 8.83334 16.822V22.2387H6.75001C6.47374 22.2387 6.20879 22.1246 6.01344 21.9214C5.81809 21.7182 5.70834 21.4427 5.70834 21.1554V11.6762C5.70853 11.5224 5.74021 11.3704 5.80128 11.2303C5.86234 11.0902 5.95139 10.9652 6.06251 10.8637L12.3125 5.17619C12.5026 5.00252 12.747 4.90673 13 4.90673C13.253 4.90673 13.4974 5.00252 13.6875 5.17619L19.9375 10.8637C20.0486 10.9652 20.1377 11.0902 20.1987 11.2303C20.2598 11.3704 20.2915 11.5224 20.2917 11.6762V21.1554Z" fill="black"/>
</svg>
