<svg width="28" height="29" viewBox="0 0 28 29" fill="none" xmlns="http://www.w3.org/2000/svg">
<path d="M18.3283 15.4003C19.4721 14.5004 20.307 13.2664 20.7168 11.8699C21.1266 10.4735 21.0909 8.98398 20.6147 7.60872C20.1386 6.23345 19.2456 5.0408 18.0601 4.19667C16.8745 3.35254 15.4554 2.89893 14 2.89893C12.5446 2.89893 11.1255 3.35254 9.93991 4.19667C8.75437 5.0408 7.8614 6.23345 7.38524 7.60872C6.90909 8.98398 6.87343 10.4735 7.28322 11.8699C7.69301 13.2664 8.52787 14.5004 9.67166 15.4003C7.71175 16.1856 6.00166 17.4879 4.7237 19.1686C3.44574 20.8492 2.64782 22.8452 2.415 24.9437C2.39814 25.0969 2.41163 25.2519 2.45469 25.3999C2.49775 25.5479 2.56954 25.686 2.66596 25.8062C2.86068 26.0491 3.14391 26.2046 3.45333 26.2387C3.76275 26.2727 4.07302 26.1824 4.31588 25.9877C4.55874 25.793 4.71429 25.5098 4.74833 25.2003C5.00451 22.9197 6.09196 20.8135 7.80292 19.2839C9.51387 17.7544 11.7284 16.9089 14.0233 16.9089C16.3183 16.9089 18.5328 17.7544 20.2437 19.2839C21.9547 20.8135 23.0421 22.9197 23.2983 25.2003C23.33 25.487 23.4668 25.7518 23.6823 25.9435C23.8977 26.1353 24.1766 26.2404 24.465 26.2387H24.5933C24.8992 26.2035 25.1787 26.0488 25.371 25.8085C25.5633 25.5681 25.6528 25.2614 25.62 24.9553C25.3861 22.8509 24.5838 20.8498 23.2993 19.1666C22.0148 17.4833 20.2964 16.1814 18.3283 15.4003ZM14 14.572C13.077 14.572 12.1748 14.2983 11.4073 13.7855C10.6399 13.2727 10.0418 12.5439 9.68856 11.6912C9.33535 10.8385 9.24293 9.90016 9.423 8.99492C9.60306 8.08967 10.0475 7.25815 10.7002 6.60551C11.3528 5.95286 12.1843 5.5084 13.0896 5.32834C13.9948 5.14828 14.9331 5.24069 15.7859 5.5939C16.6386 5.94711 17.3674 6.54525 17.8802 7.31268C18.393 8.08011 18.6667 8.98236 18.6667 9.90534C18.6667 11.143 18.175 12.33 17.2998 13.2052C16.4247 14.0803 15.2377 14.572 14 14.572Z" fill="black"/>
</svg>
