<svg width="26" height="27" viewBox="0 0 26 27" fill="none" xmlns="http://www.w3.org/2000/svg">
<path d="M23.075 11.492C22.7706 11.1266 22.3897 10.8324 21.9592 10.6302C21.5286 10.428 21.059 10.3228 20.5834 10.322H15.6434L16.25 8.77286C16.5024 8.09457 16.5864 7.36518 16.4949 6.64728C16.4034 5.92937 16.1392 5.24437 15.7248 4.65103C15.3104 4.05769 14.7583 3.57373 14.1158 3.24065C13.4733 2.90758 12.7596 2.73533 12.0359 2.7387C11.8275 2.73913 11.6236 2.79966 11.4488 2.91303C11.2739 3.0264 11.1355 3.18779 11.05 3.37786L7.96252 10.322H5.41669C4.55473 10.322 3.72808 10.6644 3.11859 11.2739C2.5091 11.8834 2.16669 12.7101 2.16669 13.572V21.1554C2.16669 22.0173 2.5091 22.844 3.11859 23.4535C3.72808 24.063 4.55473 24.4054 5.41669 24.4054H19.2075C19.9678 24.4051 20.704 24.1383 21.2879 23.6514C21.8718 23.1645 22.2665 22.4882 22.4034 21.7404L23.7792 14.157C23.8643 13.6884 23.8453 13.2067 23.7236 12.7462C23.6019 12.2856 23.3805 11.8575 23.075 11.492ZM7.58335 22.2387H5.41669C5.12937 22.2387 4.85382 22.1246 4.65065 21.9214C4.44749 21.7182 4.33335 21.4427 4.33335 21.1554V13.572C4.33335 13.2847 4.44749 13.0092 4.65065 12.806C4.85382 12.6028 5.12937 12.4887 5.41669 12.4887H7.58335V22.2387ZM21.6667 13.767L20.2909 21.3504C20.2447 21.6027 20.1105 21.8305 19.9121 21.9932C19.7137 22.1559 19.464 22.2429 19.2075 22.2387H9.75002V11.6329L12.6967 5.00286C13 5.09129 13.2817 5.24164 13.524 5.44441C13.7663 5.64719 13.9639 5.89799 14.1044 6.18098C14.2448 6.46397 14.3251 6.77302 14.3402 7.0886C14.3552 7.40419 14.3046 7.71947 14.1917 8.01453L13.6175 9.5637C13.4952 9.89114 13.4539 10.2433 13.4971 10.5902C13.5404 10.9371 13.6669 11.2683 13.866 11.5557C14.065 11.843 14.3306 12.078 14.6401 12.2404C14.9496 12.4029 15.2938 12.4881 15.6434 12.4887H20.5834C20.7425 12.4884 20.8998 12.5232 21.0439 12.5907C21.1881 12.6581 21.3157 12.7564 21.4175 12.8787C21.5219 12.9993 21.5983 13.1415 21.6414 13.295C21.6845 13.4486 21.6931 13.6097 21.6667 13.767Z" fill="black"/>
</svg>
