<svg width="25" height="26" viewBox="0 0 25 26" fill="none" xmlns="http://www.w3.org/2000/svg">
<path d="M20.8333 8.66667L14.5833 2.96834C14.0104 2.43539 13.2687 2.14075 12.5 2.14075C11.7313 2.14075 10.9896 2.43539 10.4166 2.96834L4.16664 8.66667C3.83578 8.97442 3.57175 9.35194 3.39213 9.7741C3.21252 10.1963 3.12145 10.6534 3.12498 11.115V20.5833C3.12498 21.4453 3.45422 22.2719 4.04027 22.8814C4.62632 23.4909 5.42118 23.8333 6.24998 23.8333H18.75C19.5788 23.8333 20.3736 23.4909 20.9597 22.8814C21.5457 22.2719 21.875 21.4453 21.875 20.5833V11.1042C21.877 10.6444 21.7852 10.1893 21.6057 9.76916C21.4261 9.34898 21.1629 8.97321 20.8333 8.66667ZM14.5833 21.6667H10.4166V16.25C10.4166 15.9627 10.5264 15.6871 10.7217 15.484C10.9171 15.2808 11.182 15.1667 11.4583 15.1667H13.5416C13.8179 15.1667 14.0829 15.2808 14.2782 15.484C14.4736 15.6871 14.5833 15.9627 14.5833 16.25V21.6667ZM19.7916 20.5833C19.7916 20.8707 19.6819 21.1462 19.4865 21.3494C19.2912 21.5525 19.0262 21.6667 18.75 21.6667H16.6666V16.25C16.6666 15.3881 16.3374 14.5614 15.7514 13.9519C15.1653 13.3424 14.3704 13 13.5416 13H11.4583C10.6295 13 9.83465 13.3424 9.2486 13.9519C8.66255 14.5614 8.33331 15.3881 8.33331 16.25V21.6667H6.24998C5.97371 21.6667 5.70876 21.5525 5.51341 21.3494C5.31806 21.1462 5.20831 20.8707 5.20831 20.5833V11.1042C5.2085 10.9504 5.24018 10.7983 5.30124 10.6582C5.36231 10.5182 5.45136 10.3932 5.56248 10.2917L11.8125 4.60417C12.0026 4.43049 12.2469 4.33471 12.5 4.33471C12.753 4.33471 12.9974 4.43049 13.1875 4.60417L19.4375 10.2917C19.5486 10.3932 19.6376 10.5182 19.6987 10.6582C19.7598 10.7983 19.7915 10.9504 19.7916 11.1042V20.5833Z" fill="black"/>
</svg>
