<svg width="26" height="27" viewBox="0 0 26 27" fill="none" xmlns="http://www.w3.org/2000/svg">
<path d="M13 9.61788C12.381 9.30051 11.6781 9.18521 10.9901 9.28821C10.3022 9.39121 9.66388 9.70731 9.16498 10.192C8.55636 10.8014 8.2145 11.6275 8.2145 12.4887C8.2145 13.35 8.55636 14.176 9.16498 14.7854L12.2308 17.9054C12.3315 18.0069 12.4513 18.0875 12.5834 18.1425C12.7154 18.1975 12.857 18.2258 13 18.2258C13.143 18.2258 13.2846 18.1975 13.4166 18.1425C13.5486 18.0875 13.6684 18.0069 13.7691 17.9054L16.835 14.8395C17.4436 14.2302 17.7855 13.4041 17.7855 12.5429C17.7855 11.6816 17.4436 10.8556 16.835 10.2462C16.3423 9.75263 15.707 9.4264 15.0188 9.31365C14.3306 9.2009 13.6244 9.30732 13 9.61788ZM15.2966 13.2579L13 15.5545L10.7033 13.2579C10.6018 13.1572 10.5212 13.0373 10.4662 12.9053C10.4112 12.7733 10.3829 12.6317 10.3829 12.4887C10.3829 12.3457 10.4112 12.2041 10.4662 12.0721C10.5212 11.9401 10.6018 11.8203 10.7033 11.7195C10.9063 11.5178 11.1809 11.4045 11.4671 11.4045C11.7533 11.4045 12.0278 11.5178 12.2308 11.7195C12.3315 11.8211 12.4513 11.9017 12.5834 11.9567C12.7154 12.0117 12.857 12.04 13 12.04C13.143 12.04 13.2846 12.0117 13.4166 11.9567C13.5486 11.9017 13.6684 11.8211 13.7691 11.7195C13.9721 11.5178 14.2467 11.4045 14.5329 11.4045C14.8191 11.4045 15.0937 11.5178 15.2966 11.7195C15.3982 11.8203 15.4788 11.9401 15.5338 12.0721C15.5888 12.2041 15.6171 12.3457 15.6171 12.4887C15.6171 12.6317 15.5888 12.7733 15.5338 12.9053C15.4788 13.0373 15.3982 13.1572 15.2966 13.2579ZM13 2.73871C11.5773 2.73871 10.1686 3.01892 8.85424 3.56335C7.53988 4.10777 6.34562 4.90575 5.33965 5.91172C3.30801 7.94336 2.16664 10.6989 2.16664 13.572C2.15809 16.0734 3.02414 18.4992 4.61498 20.4295L2.44831 22.5962C2.29799 22.7486 2.19616 22.942 2.15567 23.1522C2.11518 23.3623 2.13785 23.5798 2.22081 23.777C2.31079 23.972 2.45666 24.1358 2.63989 24.2476C2.82313 24.3595 3.03548 24.4144 3.24998 24.4054H13C15.8732 24.4054 18.6287 23.264 20.6603 21.2324C22.6919 19.2007 23.8333 16.4452 23.8333 13.572C23.8333 10.6989 22.6919 7.94336 20.6603 5.91172C18.6287 3.88007 15.8732 2.73871 13 2.73871ZM13 22.2387H5.86081L6.86831 21.2312C7.07008 21.0282 7.18334 20.7537 7.18334 20.4675C7.18334 20.1813 7.07008 19.9067 6.86831 19.7037C5.44978 18.2868 4.56642 16.4218 4.36873 14.4266C4.17104 12.4313 4.67125 10.4293 5.78414 8.76152C6.89703 7.09375 8.55375 5.86343 10.472 5.28018C12.3903 4.69693 14.4515 4.79683 16.3044 5.56286C18.1573 6.3289 19.6872 7.71367 20.6336 9.48126C21.58 11.2488 21.8843 13.2899 21.4945 15.2566C21.1048 17.2234 20.0452 18.9942 18.4963 20.2673C16.9474 21.5404 15.005 22.2371 13 22.2387Z" fill="black"/>
</svg>
