<svg width="40" height="40" viewBox="0 0 40 40" fill="none" xmlns="http://www.w3.org/2000/svg">
<circle cx="19.5515" cy="19.5515" r="19.5515" fill="#D1DFD4"/>
<path d="M17.9397 21.8752C17.9567 19.8862 18.4667 19.2572 19.4017 18.6792C20.1327 18.1862 20.6937 17.7272 20.6937 17.0132C20.6937 16.2822 20.1327 15.8062 19.4017 15.7892C18.7047 15.8062 18.0587 16.2992 18.0417 17.1492H15.3897C15.4407 14.7012 17.2427 13.5962 19.4357 13.6132C21.8327 13.5962 23.5667 14.7522 23.5837 16.8772C23.5667 18.2712 22.8357 19.1212 21.7137 19.8012C20.8127 20.3112 20.3877 20.8212 20.3877 21.8752V22.1132H17.9397V21.8752ZM17.7357 24.4592C17.7187 23.6262 18.3987 22.9632 19.2317 22.9632C20.0307 22.9632 20.7277 23.6262 20.7277 24.4592C20.7277 25.2752 20.0307 25.9552 19.2317 25.9552C18.3987 25.9552 17.7187 25.2752 17.7357 24.4592Z" fill="#A8B1AA"/>
</svg>
